<svg width="54" height="53" viewBox="0 0 54 53" fill="none" xmlns="http://www.w3.org/2000/svg">
<g id="&#240;&#159;&#166;&#134; icon &#34;circle instagram&#34;" filter="url(#filter0_d_5_24)">
<path id="Vector" d="M22.2581 27.4731C21.5771 27.4731 20.9409 27.3477 20.3495 27.0968C19.7581 26.8459 19.2384 26.4964 18.7903 26.0484C18.3423 25.6004 17.9928 25.0717 17.7419 24.4624C17.491 23.853 17.3656 23.2079 17.3656 22.5269C17.3656 21.8459 17.491 21.2097 17.7419 20.6183C17.9928 20.0269 18.3423 19.5072 18.7903 19.0591C19.2384 18.6111 19.7581 18.2616 20.3495 18.0108C20.9409 17.7599 21.5771 17.6344 22.2581 17.6344C23.6201 17.6344 24.776 18.1093 25.7258 19.0591C26.6756 20.009 27.1505 21.1649 27.1505 22.5269C27.1505 23.2079 27.0251 23.853 26.7742 24.4624C26.5233 25.0717 26.1738 25.6004 25.7258 26.0484C25.2778 26.4964 24.7581 26.8459 24.1667 27.0968C23.5753 27.3477 22.9391 27.4731 22.2581 27.4731ZM30.1075 22.5269C30.1075 22.2043 30.0896 21.8728 30.0538 21.5323C30.0179 21.1918 29.9642 20.8781 29.8925 20.5914H32.0968V31.3979C32.0968 31.6846 32.0072 31.9176 31.828 32.0968C31.6487 32.276 31.4158 32.3656 31.129 32.3656H13.3871C13.1004 32.3656 12.8674 32.276 12.6882 32.0968C12.509 31.9176 12.4194 31.6846 12.4194 31.3979V20.5914H14.6237C14.552 20.8781 14.4982 21.1918 14.4624 21.5323C14.4265 21.8728 14.4086 22.2043 14.4086 22.5269C14.4086 23.6022 14.6147 24.6237 15.0269 25.5914C15.4391 26.5591 15.9946 27.4014 16.6935 28.1183C17.3925 28.8351 18.2258 29.3996 19.1935 29.8118C20.1613 30.224 21.1828 30.4301 22.2581 30.4301C23.3333 30.4301 24.3548 30.224 25.3226 29.8118C26.2903 29.3996 27.1237 28.8351 27.8226 28.1183C28.5215 27.4014 29.0771 26.5591 29.4892 25.5914C29.9014 24.6237 30.1075 23.6022 30.1075 22.5269ZM22.4731 0C25.5914 0 28.5125 0.591398 31.2366 1.77419C33.9606 2.95699 36.3441 4.56093 38.3871 6.58602C40.4301 8.61111 42.043 10.9857 43.2258 13.7097C44.4086 16.4337 45 19.3548 45 22.4731C45 25.5914 44.4086 28.5125 43.2258 31.2366C42.043 33.9606 40.4301 36.3441 38.3871 38.3871C36.3441 40.4301 33.9606 42.043 31.2366 43.2258C28.5125 44.4086 25.5914 45 22.4731 45C19.3548 45 16.4337 44.4086 13.7097 43.2258C10.9857 42.043 8.61111 40.4301 6.58602 38.3871C4.56093 36.3441 2.95699 33.9606 1.77419 31.2366C0.591398 28.5125 0 25.5914 0 22.4731C0 19.3548 0.591398 16.4337 1.77419 13.7097C2.95699 10.9857 4.56093 8.61111 6.58602 6.58602C8.61111 4.56093 10.9857 2.95699 13.7097 1.77419C16.4337 0.591398 19.3548 0 22.4731 0ZM35.0538 12.6882C35.0538 11.8638 34.767 11.1649 34.1936 10.5914C33.6201 10.0179 32.9211 9.73118 32.0968 9.73118H12.4194C11.595 9.73118 10.8961 10.0179 10.3226 10.5914C9.7491 11.1649 9.46237 11.8638 9.46237 12.6882V32.3656C9.46237 33.19 9.7491 33.8889 10.3226 34.4624C10.8961 35.0358 11.595 35.3226 12.4194 35.3226H32.0968C32.9211 35.3226 33.6201 35.0358 34.1936 34.4624C34.767 33.8889 35.0538 33.19 35.0538 32.3656V12.6882ZM31.129 12.6882C31.4158 12.6882 31.6487 12.7867 31.828 12.9839C32.0072 13.181 32.0968 13.4229 32.0968 13.7097V16.6667C32.0968 16.9534 32.0072 17.1864 31.828 17.3656C31.6487 17.5448 31.4158 17.6344 31.129 17.6344H28.172C27.8853 17.6344 27.6434 17.5448 27.4462 17.3656C27.2491 17.1864 27.1505 16.9534 27.1505 16.6667V13.7097C27.1505 13.4229 27.2491 13.181 27.4462 12.9839C27.6434 12.7867 27.8853 12.6882 28.172 12.6882H31.129Z" fill="#C1C1C1"/>
</g>
<defs>
<filter id="filter0_d_5_24" x="0" y="0" width="54" height="53" filterUnits="userSpaceOnUse" color-interpolation-filters="sRGB">
<feFlood flood-opacity="0" result="BackgroundImageFix"/>
<feColorMatrix in="SourceAlpha" type="matrix" values="0 0 0 0 0 0 0 0 0 0 0 0 0 0 0 0 0 0 127 0" result="hardAlpha"/>
<feOffset dx="5" dy="4"/>
<feGaussianBlur stdDeviation="2"/>
<feComposite in2="hardAlpha" operator="out"/>
<feColorMatrix type="matrix" values="0 0 0 0 0 0 0 0 0 0 0 0 0 0 0 0 0 0 0.5 0"/>
<feBlend mode="normal" in2="BackgroundImageFix" result="effect1_dropShadow_5_24"/>
<feBlend mode="normal" in="SourceGraphic" in2="effect1_dropShadow_5_24" result="shape"/>
</filter>
</defs>
</svg>
