<svg width="54" height="53" viewBox="0 0 54 53" fill="none" xmlns="http://www.w3.org/2000/svg">
<g id="&#240;&#159;&#166;&#134; icon &#34;circle githubalt&#34;" filter="url(#filter0_d_5_27)">
<path id="Vector" d="M29.1587 21.8019C30.6265 21.8019 31.79 22.321 32.6492 23.3592C33.5084 24.4332 33.9379 25.7041 33.9379 27.1718C33.9379 28.2816 33.7321 29.2303 33.3204 30.0179C32.9087 30.8055 32.3986 31.4499 31.79 31.9511C31.1814 32.4523 30.4296 32.8282 29.5346 33.0788C28.6038 33.3652 27.7357 33.5442 26.9302 33.6158C26.1247 33.6874 25.2029 33.7232 24.1647 33.7232H20.9964C19.994 33.7232 19.0811 33.6874 18.2578 33.6158C17.4344 33.5442 16.5573 33.3652 15.6265 33.0788C14.6957 32.8282 13.9439 32.4523 13.3711 31.9511C12.7625 31.4499 12.2613 30.8055 11.8675 30.0179C11.4737 29.2303 11.2768 28.2816 11.2768 27.1718C11.2768 25.7041 11.7064 24.4332 12.5656 23.3592C13.4248 22.321 14.5883 21.8019 16.0561 21.8019C16.3425 21.8019 16.781 21.8377 17.3717 21.9093C17.9624 21.9809 18.7232 22.0704 19.6539 22.1778C20.0835 22.2494 20.5489 22.3031 21.0501 22.3389C21.5513 22.3747 22.0704 22.3926 22.6074 22.3926C23.1086 22.3926 23.6098 22.3747 24.111 22.3389C24.6122 22.3031 25.0776 22.2494 25.5072 22.1778C26.4737 22.0704 27.2524 21.9809 27.8431 21.9093C28.4338 21.8377 28.8723 21.8019 29.1587 21.8019ZM17.9893 30.1253C18.5621 29.4451 18.8932 28.7112 18.9827 27.9236C19.0722 27.136 19.0095 26.3842 18.7948 25.6683C18.6158 25.1313 18.3383 24.648 17.9624 24.2184C17.5865 23.7888 17.148 23.574 16.6468 23.574C16.1456 23.574 15.6802 23.7888 15.2506 24.2184C14.7136 24.8986 14.4004 25.6325 14.3109 26.42C14.2214 27.2076 14.2661 27.9594 14.4451 28.6754C14.6241 29.2124 14.9016 29.6957 15.2774 30.1253C15.6533 30.5549 16.1098 30.7697 16.6468 30.7697C17.148 30.7697 17.5955 30.5549 17.9893 30.1253ZM29.9105 30.1253C30.4833 29.4451 30.8144 28.7112 30.9039 27.9236C30.9934 27.136 30.9129 26.3842 30.6623 25.6683C30.5191 25.1313 30.2595 24.648 29.8837 24.2184C29.5078 23.7888 29.0692 23.574 28.568 23.574C28.0668 23.574 27.6014 23.7888 27.1718 24.2184C26.6348 24.8986 26.3216 25.6325 26.2321 26.42C26.1426 27.2076 26.1874 27.9594 26.3663 28.6754C26.5453 29.2124 26.8228 29.6957 27.1987 30.1253C27.5746 30.5549 28.031 30.7697 28.568 30.7697C29.0692 30.7697 29.5167 30.5549 29.9105 30.1253ZM22.5 0C25.6146 0 28.5322 0.590692 31.253 1.77208C33.9737 2.95346 36.3544 4.55549 38.395 6.57816C40.4356 8.60084 42.0465 10.9815 43.2279 13.7202C44.4093 16.4588 45 19.3854 45 22.5C45 25.6146 44.4093 28.5322 43.2279 31.253C42.0465 33.9737 40.4356 36.3544 38.395 38.395C36.3544 40.4356 33.9737 42.0465 31.253 43.2279C28.5322 44.4093 25.6146 45 22.5 45C19.3854 45 16.4678 44.4093 13.747 43.2279C11.0263 42.0465 8.64559 40.4356 6.60501 38.395C4.56444 36.3544 2.95346 33.9737 1.77208 31.253C0.590692 28.5322 0 25.6146 0 22.5C0 19.3854 0.590692 16.4588 1.77208 13.7202C2.95346 10.9815 4.56444 8.60084 6.60501 6.57816C8.64559 4.55549 11.0263 2.95346 13.747 1.77208C16.4678 0.590692 19.3854 0 22.5 0ZM36.9451 30.0716C37.6969 28.5322 38.0728 26.4737 38.0728 23.8962C38.0728 20.889 37.2315 18.4189 35.5489 16.4857C35.8711 15.4833 36.0322 14.4451 36.0322 13.3711C36.0322 11.9749 35.7279 10.6146 35.1193 9.28998C33.8306 9.28998 32.6492 9.54057 31.5752 10.0418C31.074 10.2924 30.537 10.6056 29.9642 10.9815C29.3914 11.3574 28.7649 11.7959 28.0847 12.2971C26.4737 11.8675 24.7375 11.6527 22.8759 11.6527C21.8735 11.6527 20.898 11.7154 19.9493 11.8407C19.0006 11.966 18.0609 12.136 17.1301 12.3508C15.7697 11.2768 14.5883 10.5072 13.5859 10.0418C12.5119 9.54057 11.3484 9.28998 10.0955 9.28998C9.45107 10.5788 9.12888 11.9391 9.12888 13.3711C9.12888 14.4809 9.28998 15.537 9.61217 16.5394C7.92959 18.5084 7.08831 20.9606 7.08831 23.8962C7.08831 26.4737 7.4821 28.5322 8.26969 30.0716C8.84248 31.3246 9.72852 32.318 10.9278 33.0519C12.1271 33.7858 13.3711 34.3138 14.6599 34.636C15.5907 34.9224 16.5394 35.1193 17.506 35.2267C18.0072 35.2983 18.4905 35.352 18.9558 35.3878C19.4212 35.4236 19.8508 35.4415 20.2446 35.4415C20.6384 35.4773 21.0501 35.4952 21.4797 35.4952H24.5137L25.9905 35.4415L27.4672 35.2804L29.1587 35.0119C30.4117 34.7971 31.4678 34.5107 32.327 34.1527C33.2578 33.7589 34.1348 33.213 34.9582 32.5149C35.7816 31.8168 36.4439 31.0024 36.9451 30.0716Z" fill="#C1C1C1"/>
</g>
<defs>
<filter id="filter0_d_5_27" x="0" y="0" width="54" height="53" filterUnits="userSpaceOnUse" color-interpolation-filters="sRGB">
<feFlood flood-opacity="0" result="BackgroundImageFix"/>
<feColorMatrix in="SourceAlpha" type="matrix" values="0 0 0 0 0 0 0 0 0 0 0 0 0 0 0 0 0 0 127 0" result="hardAlpha"/>
<feOffset dx="5" dy="4"/>
<feGaussianBlur stdDeviation="2"/>
<feComposite in2="hardAlpha" operator="out"/>
<feColorMatrix type="matrix" values="0 0 0 0 0 0 0 0 0 0 0 0 0 0 0 0 0 0 0.5 0"/>
<feBlend mode="normal" in2="BackgroundImageFix" result="effect1_dropShadow_5_27"/>
<feBlend mode="normal" in="SourceGraphic" in2="effect1_dropShadow_5_27" result="shape"/>
</filter>
</defs>
</svg>
