<svg width="54" height="53" viewBox="0 0 54 53" fill="none" xmlns="http://www.w3.org/2000/svg">
<g id="&#240;&#159;&#166;&#134; icon &#34;circle email&#34;" filter="url(#filter0_d_5_21)">
<path id="Vector" d="M22.5 0C25.6071 0 28.5268 0.589286 31.2589 1.76786C33.9911 2.94643 36.375 4.55357 38.4107 6.58929C40.4464 8.625 42.0536 11.0089 43.2321 13.7411C44.4107 16.4732 45 19.3929 45 22.5C45 25.6071 44.4107 28.5268 43.2321 31.2589C42.0536 33.9911 40.4464 36.375 38.4107 38.4107C36.375 40.4464 33.9911 42.0536 31.2589 43.2321C28.5268 44.4107 25.6071 45 22.5 45C19.3929 45 16.4732 44.4107 13.7411 43.2321C11.0089 42.0536 8.625 40.4464 6.58929 38.4107C4.55357 36.375 2.94643 33.9911 1.76786 31.2589C0.589286 28.5268 0 25.6071 0 22.5C0 19.3929 0.589286 16.4732 1.76786 13.7411C2.94643 11.0089 4.55357 8.625 6.58929 6.58929C8.625 4.55357 11.0089 2.94643 13.7411 1.76786C16.4732 0.589286 19.3929 0 22.5 0ZM9.85714 28.3393L16.6071 23.5179L9.85714 18.6964V28.3393ZM35.1429 30.4821L26.8929 24.5893L22.5 27.75L18.0536 24.5893L9.85714 30.4821V33.75H35.1429V30.4821ZM35.1429 18.6964L28.3929 23.5179L35.1429 28.3393V18.6964ZM35.1429 11.25H9.85714V14.5179L22.5 23.5179L35.1429 14.5179V11.25Z" fill="#C1C1C1"/>
</g>
<defs>
<filter id="filter0_d_5_21" x="0" y="0" width="54" height="53" filterUnits="userSpaceOnUse" color-interpolation-filters="sRGB">
<feFlood flood-opacity="0" result="BackgroundImageFix"/>
<feColorMatrix in="SourceAlpha" type="matrix" values="0 0 0 0 0 0 0 0 0 0 0 0 0 0 0 0 0 0 127 0" result="hardAlpha"/>
<feOffset dx="5" dy="4"/>
<feGaussianBlur stdDeviation="2"/>
<feComposite in2="hardAlpha" operator="out"/>
<feColorMatrix type="matrix" values="0 0 0 0 0 0 0 0 0 0 0 0 0 0 0 0 0 0 0.5 0"/>
<feBlend mode="normal" in2="BackgroundImageFix" result="effect1_dropShadow_5_21"/>
<feBlend mode="normal" in="SourceGraphic" in2="effect1_dropShadow_5_21" result="shape"/>
</filter>
</defs>
</svg>
